<svg width="14" height="14" viewBox="0 0 14 14" fill="none" xmlns="http://www.w3.org/2000/svg">
<path fill-rule="evenodd" clip-rule="evenodd" d="M5.5 1.5C3.29086 1.5 1.5 3.29086 1.5 5.5C1.5 7.70914 3.29086 9.5 5.5 9.5C6.60471 9.5 7.60402 9.05283 8.32843 8.32843C9.05283 7.60402 9.5 6.60471 9.5 5.5C9.5 3.29086 7.70914 1.5 5.5 1.5ZM0.5 5.5C0.5 2.73858 2.73858 0.5 5.5 0.5C8.26142 0.5 10.5 2.73858 10.5 5.5C10.5 6.70043 10.0765 7.80266 9.37145 8.66435L13.3536 12.6464C13.5488 12.8417 13.5488 13.1583 13.3536 13.3536C13.1583 13.5488 12.8417 13.5488 12.6464 13.3536L8.66435 9.37145C7.80266 10.0765 6.70043 10.5 5.5 10.5C2.73858 10.5 0.5 8.26142 0.5 5.5Z" fill="#21325D"/>
</svg>
